<svg width="24" height="25" viewBox="0 0 24 25" fill="none" xmlns="http://www.w3.org/2000/svg">
<g clip-path="url(#clip0_83_172)">
<path d="M23.714 12.7245C23.714 11.7413 23.6342 11.0238 23.4616 10.2797H12.2336V14.7176H18.8241C18.6913 15.8205 17.9738 17.4815 16.3793 18.5976L16.3569 18.7462L19.907 21.4964L20.1529 21.5209C22.4118 19.4347 23.714 16.3653 23.714 12.7245Z" fill="#4285F4"/>
<path d="M12.2336 24.4176C15.4624 24.4176 18.173 23.3545 20.153 21.5209L16.3793 18.5976C15.3694 19.3018 14.0141 19.7934 12.2336 19.7934C9.07118 19.7934 6.38712 17.7074 5.43032 14.824L5.29008 14.8359L1.59866 17.6927L1.55038 17.8269C3.51692 21.7334 7.55634 24.4176 12.2336 24.4176Z" fill="#34A853"/>
<path d="M5.43032 14.8239C5.17786 14.0798 5.03176 13.2825 5.03176 12.4587C5.03176 11.6349 5.17786 10.8376 5.41704 10.0935L5.41035 9.93507L1.67267 7.03235L1.55038 7.09052C0.73988 8.71162 0.274811 10.532 0.274811 12.4587C0.274811 14.3854 0.73988 16.2058 1.55038 17.8269L5.43032 14.8239Z" fill="#FBBC05"/>
<path d="M12.2336 5.12403C14.4791 5.12403 15.9939 6.09402 16.8576 6.90461L20.2326 3.60928C18.1599 1.6826 15.4624 0.5 12.2336 0.5C7.55634 0.5 3.51692 3.18406 1.55038 7.09056L5.41704 10.0936C6.38712 7.2102 9.07118 5.12403 12.2336 5.12403Z" fill="#EB4335"/>
</g>
<defs>
<clipPath id="clip0_83_172">
<rect width="23.46" height="24" fill="white" transform="translate(0.269989 0.5)"/>
</clipPath>
</defs>
</svg>
